<svg width="33" height="43" viewBox="0 0 33 43" fill="none" xmlns="http://www.w3.org/2000/svg">
<path d="M14.6083 42.1324C2.28705 24.4421 0 22.6265 0 16.125C0 7.21938 7.28947 0 16.2816 0C25.2736 0 32.5631 7.21938 32.5631 16.125C32.5631 22.6265 30.2761 24.4421 17.9548 42.1324C17.1463 43.2892 15.4168 43.2892 14.6083 42.1324ZM16.2816 22.8437C20.0283 22.8437 23.0655 19.8357 23.0655 16.125C23.0655 12.4143 20.0283 9.40625 16.2816 9.40625C12.5348 9.40625 9.49757 12.4143 9.49757 16.125C9.49757 19.8357 12.5348 22.8437 16.2816 22.8437Z" fill="url(#paint0_linear)"/>
<circle cx="16.2345" cy="16.9107" r="10.8544" fill="white"/>
<path d="M13.3687 18.1055L13.9429 13.0469H19.521V14.6943H15.563L15.3169 16.834C15.7863 16.5833 16.2853 16.458 16.814 16.458C17.7619 16.458 18.5047 16.752 19.0425 17.3398C19.5802 17.9277 19.8491 18.7503 19.8491 19.8076C19.8491 20.4502 19.7124 21.0267 19.439 21.5371C19.1701 22.043 18.7827 22.4372 18.2769 22.7197C17.771 22.9977 17.174 23.1367 16.4858 23.1367C15.8843 23.1367 15.326 23.016 14.811 22.7744C14.2961 22.5283 13.8882 22.1842 13.5874 21.7422C13.2912 21.3001 13.134 20.7965 13.1157 20.2314H15.0708C15.1118 20.6462 15.2554 20.9697 15.5015 21.2021C15.7521 21.43 16.078 21.5439 16.479 21.5439C16.9256 21.5439 17.2697 21.3844 17.5112 21.0654C17.7528 20.7419 17.8735 20.2861 17.8735 19.6982C17.8735 19.1331 17.7345 18.7002 17.4565 18.3994C17.1785 18.0986 16.7843 17.9482 16.2739 17.9482C15.8045 17.9482 15.424 18.0713 15.1323 18.3174L14.9409 18.4951L13.3687 18.1055Z" fill="#454545"/>
<defs>
<linearGradient id="paint0_linear" x1="16.2816" y1="0" x2="16.2816" y2="43" gradientUnits="userSpaceOnUse">
<stop stop-color="#FFD106"/>
<stop offset="1" stop-color="#E7BC00"/>
</linearGradient>
</defs>
</svg>
